{"title":"My Friend Irma - 1949 - Martin And Lewis Debut Film","uid":8297441,"size":3662235397,"categoryP":"video","categoryS":"movies","magnet":"?xt=urn:btih:3fef6d2873e1fa19019afa7fd0142718f714dbf4&amp;dn=My+Friend+Irma+-+1949+-+Martin+And+Lewis+Debut+Film&amp;tr=udp%3A%2F%2Ftracker.openbittorrent.com%3A80&amp;tr=udp%3A%2F%2Fopen.demonii.com%3A1337&amp;tr=udp%3A%2F%2Ftracker.coppersurfer.tk%3A6969&amp;tr=udp%3A%2F%2Fexodus.desync.com%3A6969","seeders":0,"leechers":1,"uploader":"MrBruce1959","files":-1,"time":1364177923,"description":"My Friend Irma is a comedy film directed by George Marshall and is most notable as \n\nthe film debut of comedy team Dean Martin and Jerry Lewis. The film was released \n\non August 16, 1949 by Paramount and is based upon the CBS radio series My Friend \n\nIrma that first aired in 1947.\n\n\nThis film is in Black and White 4:3.\n\n &lt;a href=&quot;\nhttp://en.wikipedia.org/wiki/My_Friend_Irma_(film)&quot; rel=&quot;nofollow&quot; target=&quot;_NEW&quot;&gt;\nhttp://en.wikipedia.org/wiki/My_Friend_Irma_(film)&lt;/a&gt;\n\n\nPLEASE READ!\n\nThis video is a large 3.41 GiB .MPG file I did this to help save the quality of \n\nthis movie. I will upload a torrent for a smaller AVI copy once I have converted \n\nit. However the video quality will lower.\n\nIssues with this video is co-channel bleed-over streaking caused by scrolling text \n\non neighboring television channel.\n\n\nThis video was recorded from the cable television Pay-TV service CIMEMAX which is \n\nowned by Home Box Office. It was recorded on VHS video tape in 1986 and transfered \n\nto DVD in 2HR recording mode using a Magnavox ZV457MG9 DVD recorder.\n\n\nNero 9's Nero Vision was used to transfer this video to .MPG format.\n\n\nFormat                                   : MPEG-PS\nFile size                                : 3.41 GiB\nDuration                                 : 1h 42mn\nOverall bit rate mode                    : Variable\nOverall bit rate                         : 4 747 Kbps\n\nVideo\nID                                       : 224 (0xE0)\nFormat                                   : MPEG Video\nFormat version                           : Version 2\nFormat profile                           : Main@Main\nFormat settings, BVOP                    : Yes\nFormat settings, Matrix                  : Default\nFormat settings, GOP                     : M=3, N=15\nDuration                                 : 1h 42mn\nBit rate mode                            : Variable\nBit rate                                 : 4 396 Kbps\nMaximum bit rate                         : 6 125 Kbps\nWidth                                    : 720 pixels\nHeight                                   : 480 pixels\nDisplay aspect ratio                     : 4:3\nFrame rate                               : 29.970 fps\nStandard                                 : NTSC\nColor space                              : YUV\nChroma subsampling                       : 4:2:0\nBit depth                                : 8 bits\nScan type                                : Interlaced\nScan order                               : Top Field First\nCompression mode                         : Lossy\nBits/(Pixel*Frame)                       : 0.424\nTime code of first frame                 : 00:00:00:00\nTime code source                         : Group of pictures header\nStream size                              : 3.16 GiB (93%)\nColor primaries                          : BT.601 NTSC\nTransfer characteristics                 : BT.601\nMatrix coefficients                      : BT.601\n\nAudio\nID                                       : 189 (0xBD)-128 (0x80)\nFormat                                   : AC-3\nFormat/Info                              : Audio Coding 3\nMode extension                           : CM (complete main)\nFormat settings, Endianness              : Big\nMuxing mode                              : DVD-Video\nDuration                                 : 1h 42mn\nBit rate mode                            : Constant\nBit rate                                 : 256 Kbps\nChannel(s)                               : 2 channels\nChannel positions                        : Front: L R\nSampling rate                            : 48.0 KHz\nBit depth                                : 16 bits\nCompression mode                         : Lossy\nDelay relative to video                  : -67ms\nStream size                              : 188 MiB (5%)\n\n\nIf you are having any issues with this video playing or long leeching times please \n\nwatch for the SMALLER .AVI copy which will be added soon. \n\nEnjoy!","torrent":{"xt":"urn:btih:3fef6d2873e1fa19019afa7fd0142718f714dbf4","amp;dn":"My+Friend+Irma+-+1949+-+Martin+And+Lewis+Debut+Film","amp;tr":["udp%3A%2F%2Ftracker.openbittorrent.com%3A80","udp%3A%2F%2Fopen.demonii.com%3A1337","udp%3A%2F%2Ftracker.coppersurfer.tk%3A6969","udp%3A%2F%2Fexodus.desync.com%3A6969"],"infoHash":"3fef6d2873e1fa19019afa7fd0142718f714dbf4","infoHashBuffer":{"type":"Buffer","data":[63,239,109,40,115,225,250,25,1,154,250,127,208,20,39,24,247,20,219,244]},"announce":[],"urlList":[]}}